<svg width="886" height="886" viewBox="0 0 886 886" xmlns="http://www.w3.org/2000/svg" role="img" aria-label="krausgebaut">
    <rect width="886" height="886" fill="#005F78"/>
    <g transform="matrix(3.45296,0,0,3.21796,312.326,250.114)">
        <path d="M0,120.414L16.002,136.417L27.737,128.889C29.762,127.815 32.036,127.667 34.061,128.759L43.61,133.279L38.181,145.499L31.401,142.445L19.223,150.258C16.663,152.151 12.896,152.259 10.513,149.876L-13.64,125.717C-15.716,123.641 -15.617,120.393 -14.366,117.998L-6.076,105.094C-7.811,101.433 -9.301,97.938 -10.629,94.023L-25.754,90.724C-28.331,89.896 -30.594,87.662 -30.592,84.685L-30.568,50.272C-30.566,47.301 -28.082,45.124 -25.554,44.398L-10.67,41.166C-9.329,37.388 -7.844,33.783 -6.076,30.081L-14.366,17.172C-15.615,14.785 -15.713,11.527 -13.642,9.453L10.37,-14.584C12.602,-16.818 15.975,-17.047 18.589,-15.499L31.376,-7.282C35.022,-9.087 38.494,-10.534 42.408,-11.844L45.493,-26.015C46.018,-29.412 48.677,-31.754 52.145,-31.845L85.908,-31.809C88.918,-31.806 91.143,-29.678 92.022,-27.008L95.3,-11.911C98.956,-10.592 102.589,-9.143 106.23,-7.344L100.769,4.91C96.466,2.685 92.079,1.048 87.476,-0.28C85.383,-0.986 84.003,-2.476 83.203,-4.538L80.171,-18.468L57.543,-18.464L54.505,-4.619C54.018,-2.401 52.142,-0.923 50.124,-0.23C44.627,1.303 39.575,3.419 34.591,6.152C32.327,7.497 29.651,7.517 27.408,6.078L16.002,-1.241L0.005,14.747L7.606,26.647C8.834,28.569 8.689,30.751 7.718,32.72C4.95,37.711 2.741,42.845 1.162,48.32C0.513,51.266 -1.758,52.95 -4.563,53.549L-17.2,56.249L-17.21,78.891L-3.884,81.802C-1.317,82.362 0.538,84.311 1.166,86.831C2.742,92.351 4.951,97.443 7.718,102.453C8.692,104.415 8.832,106.605 7.607,108.522L0,120.414Z" fill="#FFFFFF" fill-rule="nonzero"/>
    </g>
</svg>
